<svg width="52" height="52" viewBox="0 0 52 52" fill="none" xmlns="http://www.w3.org/2000/svg">
<path d="M34.5206 31.1407L34.4853 17.5147L20.8593 17.4794C20.7174 17.4601 20.5729 17.4717 20.4358 17.5131C20.2987 17.5546 20.1721 17.625 20.0645 17.7196C19.957 17.8143 19.871 17.9309 19.8125 18.0617C19.7539 18.1924 19.7242 18.3342 19.7252 18.4775C19.7262 18.6207 19.758 18.7621 19.8184 18.892C19.8788 19.0219 19.9664 19.1373 20.0753 19.2304C20.1842 19.3235 20.3118 19.3921 20.4495 19.4316C20.5872 19.4711 20.7318 19.4805 20.8735 19.4593L31.0841 19.5017L17.5571 33.0286C17.3696 33.2162 17.2643 33.4705 17.2643 33.7357C17.2643 34.001 17.3696 34.2553 17.5571 34.4429C17.7447 34.6304 17.999 34.7358 18.2643 34.7358C18.5295 34.7358 18.7838 34.6304 18.9714 34.4429L32.4983 20.9159L32.5407 31.1265C32.5417 31.3919 32.648 31.646 32.8363 31.833C33.0246 32.02 33.2795 32.1245 33.5448 32.1235C33.8102 32.1226 34.0643 32.0163 34.2513 31.828C34.4383 31.6397 34.5428 31.3848 34.5418 31.1195L34.5206 31.1407Z" fill="white"/>
</svg>
